<svg xmlns="http://www.w3.org/2000/svg" viewBox="0 0 860 440" width="860" height="440" role="img" aria-label="topk_search — speedup vs numpy"><defs><linearGradient id="cbg" x1="0" y1="0" x2="0" y2="1"><stop offset="0" stop-color="#0b1020"/><stop offset="1" stop-color="#0e1830"/></linearGradient></defs><style>.t{font-family:Segoe UI,system-ui,Arial,sans-serif;fill:#e6edf3}.m{font-family:Segoe UI,system-ui,Arial,sans-serif;fill:#9fb0c9;font-size:13px}.v{font-family:Segoe UI,system-ui,Arial,sans-serif;fill:#e6edf3;font-size:12px;font-weight:700}.ax{font-family:Segoe UI,system-ui,Arial,sans-serif;fill:#6c7a96;font-size:12px}</style><rect width="860" height="440" rx="14" fill="url(#cbg)"/><text x="40" y="42" class="t" font-size="20" font-weight="800">topk_search — speedup vs numpy</text><text x="40" y="66" class="m">exact k-NN scan; single query · best-of-7 · Intel Core Ultra 9 (AVX2). Higher is better.</text><g class="ax"><line x1="92" y1="366.0" x2="824" y2="366.0" stroke="#1b2944" stroke-width="1"/><text x="80" y="370.0" text-anchor="end">0×</text><line x1="92" y1="311.2" x2="824" y2="311.2" stroke="#1b2944" stroke-width="1"/><text x="80" y="315.2" text-anchor="end">1.5×</text><line x1="92" y1="256.4" x2="824" y2="256.4" stroke="#1b2944" stroke-width="1"/><text x="80" y="260.4" text-anchor="end">3×</text><line x1="92" y1="201.6" x2="824" y2="201.6" stroke="#1b2944" stroke-width="1"/><text x="80" y="205.6" text-anchor="end">4.5×</text><line x1="92" y1="146.8" x2="824" y2="146.8" stroke="#1b2944" stroke-width="1"/><text x="80" y="150.8" text-anchor="end">6×</text><line x1="92" y1="92.0" x2="824" y2="92.0" stroke="#1b2944" stroke-width="1"/><text x="80" y="96.0" text-anchor="end">7.5×</text><line x1="92" y1="366" x2="824" y2="366" stroke="#2a3a59" stroke-width="1.5"/></g><rect x="139.6" y="143.9" width="61.7" height="222.1" rx="4" fill="#34d399"/><text x="170.4" y="136.9" text-anchor="middle" class="v">6.08×</text><rect x="209.3" y="333.9" width="61.7" height="32.1" rx="4" fill="#a78bfa"/><text x="240.1" y="326.9" text-anchor="middle" class="v">0.88×</text><rect x="279.0" y="336.0" width="61.7" height="30.0" rx="4" fill="#f472b6"/><text x="309.9" y="329.0" text-anchor="middle" class="v">0.82×</text><rect x="348.7" y="337.5" width="61.7" height="28.5" rx="4" fill="#fb7185"/><text x="379.6" y="330.5" text-anchor="middle" class="v">0.78×</text><text x="275.0" y="390" text-anchor="middle" class="m">50,000</text><rect x="505.6" y="190.3" width="61.7" height="175.7" rx="4" fill="#34d399"/><text x="536.4" y="183.3" text-anchor="middle" class="v">4.81×</text><rect x="575.3" y="335.7" width="61.7" height="30.3" rx="4" fill="#a78bfa"/><text x="606.1" y="328.7" text-anchor="middle" class="v">0.83×</text><rect x="645.0" y="337.1" width="61.7" height="28.9" rx="4" fill="#f472b6"/><text x="675.9" y="330.1" text-anchor="middle" class="v">0.79×</text><rect x="714.7" y="339.0" width="61.7" height="27.0" rx="4" fill="#fb7185"/><text x="745.6" y="332.0" text-anchor="middle" class="v">0.74×</text><text x="641.0" y="390" text-anchor="middle" class="m">200,000</text><line x1="92" y1="329.5" x2="824" y2="329.5" stroke="#f59e0b" stroke-width="2" stroke-dasharray="7 5"/><text x="816" y="322.5" text-anchor="end" class="m" fill="#f59e0b">1× — numpy baseline</text><g class="m"><rect x="92" y="408" width="13" height="13" rx="3" fill="#34d399"/><text x="111" y="419">rust</text><rect x="158" y="408" width="13" height="13" rx="3" fill="#a78bfa"/><text x="177" y="419">cuda</text><rect x="224" y="408" width="13" height="13" rx="3" fill="#f472b6"/><text x="243" y="419">triton</text><rect x="308" y="408" width="13" height="13" rx="3" fill="#fb7185"/><text x="327" y="419">torch</text></g></svg>
