<svg xmlns="http://www.w3.org/2000/svg" viewBox="0 0 860 440" width="860" height="440" role="img" aria-label="batch_cosine — speedup vs numpy"><defs><linearGradient id="cbg" x1="0" y1="0" x2="0" y2="1"><stop offset="0" stop-color="#0b1020"/><stop offset="1" stop-color="#0e1830"/></linearGradient></defs><style>.t{font-family:Segoe UI,system-ui,Arial,sans-serif;fill:#e6edf3}.m{font-family:Segoe UI,system-ui,Arial,sans-serif;fill:#9fb0c9;font-size:13px}.v{font-family:Segoe UI,system-ui,Arial,sans-serif;fill:#e6edf3;font-size:12px;font-weight:700}.ax{font-family:Segoe UI,system-ui,Arial,sans-serif;fill:#6c7a96;font-size:12px}</style><rect width="860" height="440" rx="14" fill="url(#cbg)"/><text x="40" y="42" class="t" font-size="20" font-weight="800">batch_cosine — speedup vs numpy</text><text x="40" y="66" class="m">64 queries × corpus, 768-dim · best-of-7 · Intel Core Ultra 9 (AVX2). Higher is better.</text><g class="ax"><line x1="92" y1="366.0" x2="824" y2="366.0" stroke="#1b2944" stroke-width="1"/><text x="80" y="370.0" text-anchor="end">0×</text><line x1="92" y1="311.2" x2="824" y2="311.2" stroke="#1b2944" stroke-width="1"/><text x="80" y="315.2" text-anchor="end">2×</text><line x1="92" y1="256.4" x2="824" y2="256.4" stroke="#1b2944" stroke-width="1"/><text x="80" y="260.4" text-anchor="end">4×</text><line x1="92" y1="201.6" x2="824" y2="201.6" stroke="#1b2944" stroke-width="1"/><text x="80" y="205.6" text-anchor="end">6×</text><line x1="92" y1="146.8" x2="824" y2="146.8" stroke="#1b2944" stroke-width="1"/><text x="80" y="150.8" text-anchor="end">8×</text><line x1="92" y1="92.0" x2="824" y2="92.0" stroke="#1b2944" stroke-width="1"/><text x="80" y="96.0" text-anchor="end">10×</text><line x1="92" y1="366" x2="824" y2="366" stroke="#2a3a59" stroke-width="1.5"/></g><rect x="139.6" y="282.4" width="61.7" height="83.6" rx="4" fill="#34d399"/><text x="170.4" y="275.4" text-anchor="middle" class="v">3.05×</text><rect x="209.3" y="224.6" width="61.7" height="141.4" rx="4" fill="#a78bfa"/><text x="240.1" y="217.6" text-anchor="middle" class="v">5.16×</text><rect x="279.0" y="246.5" width="61.7" height="119.5" rx="4" fill="#f472b6"/><text x="309.9" y="239.5" text-anchor="middle" class="v">4.36×</text><rect x="348.7" y="156.9" width="61.7" height="209.1" rx="4" fill="#fb7185"/><text x="379.6" y="149.9" text-anchor="middle" class="v">7.63×</text><text x="275.0" y="390" text-anchor="middle" class="m">50,000</text><rect x="505.6" y="314.2" width="61.7" height="51.8" rx="4" fill="#34d399"/><text x="536.4" y="307.2" text-anchor="middle" class="v">1.89×</text><rect x="575.3" y="231.5" width="61.7" height="134.5" rx="4" fill="#a78bfa"/><text x="606.1" y="224.5" text-anchor="middle" class="v">4.91×</text><rect x="645.0" y="264.1" width="61.7" height="101.9" rx="4" fill="#f472b6"/><text x="675.9" y="257.1" text-anchor="middle" class="v">3.72×</text><rect x="714.7" y="161.6" width="61.7" height="204.4" rx="4" fill="#fb7185"/><text x="745.6" y="154.6" text-anchor="middle" class="v">7.46×</text><text x="641.0" y="390" text-anchor="middle" class="m">200,000</text><line x1="92" y1="338.6" x2="824" y2="338.6" stroke="#f59e0b" stroke-width="2" stroke-dasharray="7 5"/><text x="816" y="331.6" text-anchor="end" class="m" fill="#f59e0b">1× — numpy baseline</text><g class="m"><rect x="92" y="408" width="13" height="13" rx="3" fill="#34d399"/><text x="111" y="419">rust</text><rect x="158" y="408" width="13" height="13" rx="3" fill="#a78bfa"/><text x="177" y="419">cuda</text><rect x="224" y="408" width="13" height="13" rx="3" fill="#f472b6"/><text x="243" y="419">triton</text><rect x="308" y="408" width="13" height="13" rx="3" fill="#fb7185"/><text x="327" y="419">torch</text></g></svg>
