<svg xmlns="http://www.w3.org/2000/svg" viewBox="0 0 860 440" width="860" height="440" role="img" aria-label="dot_product throughput — scalar vs AVX2+FMA"><defs><linearGradient id="cbg" x1="0" y1="0" x2="0" y2="1"><stop offset="0" stop-color="#0b1020"/><stop offset="1" stop-color="#0e1830"/></linearGradient></defs><style>.t{font-family:Segoe UI,system-ui,Arial,sans-serif;fill:#e6edf3}.m{font-family:Segoe UI,system-ui,Arial,sans-serif;fill:#9fb0c9;font-size:13px}.v{font-family:Segoe UI,system-ui,Arial,sans-serif;fill:#e6edf3;font-size:12px;font-weight:700}.ax{font-family:Segoe UI,system-ui,Arial,sans-serif;fill:#6c7a96;font-size:12px}</style><rect width="860" height="440" rx="14" fill="url(#cbg)"/><text x="40" y="42" class="t" font-size="20" font-weight="800">dot_product throughput — scalar vs AVX2+FMA</text><text x="40" y="66" class="m">criterion medians · Intel Core Ultra 9 (AVX2). Higher is better (Gelem/s).</text><g class="ax"><line x1="92" y1="366.0" x2="824" y2="366.0" stroke="#1b2944" stroke-width="1"/><text x="80" y="370.0" text-anchor="end">0</text><line x1="92" y1="311.2" x2="824" y2="311.2" stroke="#1b2944" stroke-width="1"/><text x="80" y="315.2" text-anchor="end">8</text><line x1="92" y1="256.4" x2="824" y2="256.4" stroke="#1b2944" stroke-width="1"/><text x="80" y="260.4" text-anchor="end">16</text><line x1="92" y1="201.6" x2="824" y2="201.6" stroke="#1b2944" stroke-width="1"/><text x="80" y="205.6" text-anchor="end">24</text><line x1="92" y1="146.8" x2="824" y2="146.8" stroke="#1b2944" stroke-width="1"/><text x="80" y="150.8" text-anchor="end">32</text><line x1="92" y1="92.0" x2="824" y2="92.0" stroke="#1b2944" stroke-width="1"/><text x="80" y="96.0" text-anchor="end">40</text><line x1="92" y1="366" x2="824" y2="366" stroke="#2a3a59" stroke-width="1.5"/></g><rect x="115.8" y="338.0" width="63.7" height="28.0" rx="4" fill="#64748b"/><text x="147.6" y="331.0" text-anchor="middle" class="v">4</text><rect x="187.5" y="150.2" width="63.7" height="215.8" rx="4" fill="#34d399"/><text x="219.4" y="143.2" text-anchor="middle" class="v">31</text><text x="183.5" y="390" text-anchor="middle" class="m">d=128</text><rect x="298.8" y="344.9" width="63.7" height="21.1" rx="4" fill="#64748b"/><text x="330.6" y="337.9" text-anchor="middle" class="v">3</text><rect x="370.5" y="109.8" width="63.7" height="256.2" rx="4" fill="#34d399"/><text x="402.4" y="102.8" text-anchor="middle" class="v">37</text><text x="366.5" y="390" text-anchor="middle" class="m">d=384</text><rect x="481.8" y="346.5" width="63.7" height="19.5" rx="4" fill="#64748b"/><text x="513.6" y="339.5" text-anchor="middle" class="v">3</text><rect x="553.5" y="140.3" width="63.7" height="225.7" rx="4" fill="#34d399"/><text x="585.4" y="133.3" text-anchor="middle" class="v">33</text><text x="549.5" y="390" text-anchor="middle" class="m">d=768</text><rect x="664.8" y="347.5" width="63.7" height="18.5" rx="4" fill="#64748b"/><text x="696.6" y="340.5" text-anchor="middle" class="v">3</text><rect x="736.5" y="136.1" width="63.7" height="229.9" rx="4" fill="#34d399"/><text x="768.4" y="129.1" text-anchor="middle" class="v">34</text><text x="732.5" y="390" text-anchor="middle" class="m">d=1536</text><g class="m"><rect x="92" y="408" width="13" height="13" rx="3" fill="#64748b"/><text x="111" y="419">scalar</text><rect x="176" y="408" width="13" height="13" rx="3" fill="#34d399"/><text x="195" y="419">simd</text></g></svg>
