<svg xmlns="http://www.w3.org/2000/svg" viewBox="0 0 860 440" width="860" height="440" role="img" aria-label="batch_cosine — peak host memory"><defs><linearGradient id="cbg" x1="0" y1="0" x2="0" y2="1"><stop offset="0" stop-color="#0b1020"/><stop offset="1" stop-color="#0e1830"/></linearGradient></defs><style>.t{font-family:Segoe UI,system-ui,Arial,sans-serif;fill:#e6edf3}.m{font-family:Segoe UI,system-ui,Arial,sans-serif;fill:#9fb0c9;font-size:13px}.v{font-family:Segoe UI,system-ui,Arial,sans-serif;fill:#e6edf3;font-size:12px;font-weight:700}.ax{font-family:Segoe UI,system-ui,Arial,sans-serif;fill:#6c7a96;font-size:12px}</style><rect width="860" height="440" rx="14" fill="url(#cbg)"/><text x="40" y="42" class="t" font-size="20" font-weight="800">batch_cosine — peak host memory</text><text x="40" y="66" class="m">transient Python-heap peak (MiB) · best-of-7 · Intel Core Ultra 9 (AVX2). Lower is better.</text><g class="ax"><line x1="92" y1="366.0" x2="824" y2="366.0" stroke="#1b2944" stroke-width="1"/><text x="80" y="370.0" text-anchor="end">0</text><line x1="92" y1="311.2" x2="824" y2="311.2" stroke="#1b2944" stroke-width="1"/><text x="80" y="315.2" text-anchor="end">150</text><line x1="92" y1="256.4" x2="824" y2="256.4" stroke="#1b2944" stroke-width="1"/><text x="80" y="260.4" text-anchor="end">300</text><line x1="92" y1="201.6" x2="824" y2="201.6" stroke="#1b2944" stroke-width="1"/><text x="80" y="205.6" text-anchor="end">450</text><line x1="92" y1="146.8" x2="824" y2="146.8" stroke="#1b2944" stroke-width="1"/><text x="80" y="150.8" text-anchor="end">600</text><line x1="92" y1="92.0" x2="824" y2="92.0" stroke="#1b2944" stroke-width="1"/><text x="80" y="96.0" text-anchor="end">750</text><line x1="92" y1="366" x2="824" y2="366" stroke="#2a3a59" stroke-width="1.5"/></g><rect x="139.6" y="303.5" width="47.8" height="62.5" rx="4" fill="#38bdf8"/><text x="163.5" y="296.5" text-anchor="middle" class="v">171.09</text><rect x="195.3" y="366.0" width="47.8" height="0.0" rx="4" fill="#34d399"/><text x="219.2" y="359.0" text-anchor="middle" class="v">0</text><rect x="251.1" y="361.5" width="47.8" height="4.5" rx="4" fill="#a78bfa"/><text x="275.0" y="354.5" text-anchor="middle" class="v">12.21</text><rect x="306.9" y="366.0" width="47.8" height="0.0" rx="4" fill="#f472b6"/><text x="330.8" y="359.0" text-anchor="middle" class="v">0</text><rect x="362.7" y="366.0" width="47.8" height="0.0" rx="4" fill="#fb7185"/><text x="386.5" y="359.0" text-anchor="middle" class="v">0</text><text x="275.0" y="390" text-anchor="middle" class="m">50,000</text><rect x="505.6" y="116.2" width="47.8" height="249.8" rx="4" fill="#38bdf8"/><text x="529.5" y="109.2" text-anchor="middle" class="v">683.78</text><rect x="561.3" y="366.0" width="47.8" height="0.0" rx="4" fill="#34d399"/><text x="585.2" y="359.0" text-anchor="middle" class="v">0</text><rect x="617.1" y="348.2" width="47.8" height="17.8" rx="4" fill="#a78bfa"/><text x="641.0" y="341.2" text-anchor="middle" class="v">48.83</text><rect x="672.9" y="366.0" width="47.8" height="0.0" rx="4" fill="#f472b6"/><text x="696.8" y="359.0" text-anchor="middle" class="v">0</text><rect x="728.7" y="366.0" width="47.8" height="0.0" rx="4" fill="#fb7185"/><text x="752.5" y="359.0" text-anchor="middle" class="v">0</text><text x="641.0" y="390" text-anchor="middle" class="m">200,000</text><g class="m"><rect x="92" y="408" width="13" height="13" rx="3" fill="#38bdf8"/><text x="111" y="419">numpy</text><rect x="167" y="408" width="13" height="13" rx="3" fill="#34d399"/><text x="186" y="419">rust</text><rect x="233" y="408" width="13" height="13" rx="3" fill="#a78bfa"/><text x="252" y="419">cuda</text><rect x="299" y="408" width="13" height="13" rx="3" fill="#f472b6"/><text x="318" y="419">triton</text><rect x="383" y="408" width="13" height="13" rx="3" fill="#fb7185"/><text x="402" y="419">torch</text></g></svg>
