<svg xmlns="http://www.w3.org/2000/svg" viewBox="0 0 860 440" width="860" height="440" role="img" aria-label="batch_cosine — GPU speedup vs Rust (CPU)"><defs><linearGradient id="cbg" x1="0" y1="0" x2="0" y2="1"><stop offset="0" stop-color="#0b1020"/><stop offset="1" stop-color="#0e1830"/></linearGradient></defs><style>.t{font-family:Segoe UI,system-ui,Arial,sans-serif;fill:#e6edf3}.m{font-family:Segoe UI,system-ui,Arial,sans-serif;fill:#9fb0c9;font-size:13px}.v{font-family:Segoe UI,system-ui,Arial,sans-serif;fill:#e6edf3;font-size:12px;font-weight:700}.ax{font-family:Segoe UI,system-ui,Arial,sans-serif;fill:#6c7a96;font-size:12px}</style><rect width="860" height="440" rx="14" fill="url(#cbg)"/><text x="40" y="42" class="t" font-size="20" font-weight="800">batch_cosine — GPU speedup vs Rust (CPU)</text><text x="40" y="66" class="m">end-to-end, host-to-host · best-of-7 · Intel Core Ultra 9 (AVX2). Higher is better.</text><g class="ax"><line x1="92" y1="366.0" x2="824" y2="366.0" stroke="#1b2944" stroke-width="1"/><text x="80" y="370.0" text-anchor="end">0×</text><line x1="92" y1="311.2" x2="824" y2="311.2" stroke="#1b2944" stroke-width="1"/><text x="80" y="315.2" text-anchor="end">0.8×</text><line x1="92" y1="256.4" x2="824" y2="256.4" stroke="#1b2944" stroke-width="1"/><text x="80" y="260.4" text-anchor="end">1.6×</text><line x1="92" y1="201.6" x2="824" y2="201.6" stroke="#1b2944" stroke-width="1"/><text x="80" y="205.6" text-anchor="end">2.4×</text><line x1="92" y1="146.8" x2="824" y2="146.8" stroke="#1b2944" stroke-width="1"/><text x="80" y="150.8" text-anchor="end">3.2×</text><line x1="92" y1="92.0" x2="824" y2="92.0" stroke="#1b2944" stroke-width="1"/><text x="80" y="96.0" text-anchor="end">4×</text><line x1="92" y1="366" x2="824" y2="366" stroke="#2a3a59" stroke-width="1.5"/></g><rect x="139.6" y="249.6" width="84.9" height="116.4" rx="4" fill="#a78bfa"/><text x="182.1" y="242.6" text-anchor="middle" class="v">1.7×</text><rect x="232.5" y="268.0" width="84.9" height="98.0" rx="4" fill="#f472b6"/><text x="275.0" y="261.0" text-anchor="middle" class="v">1.43×</text><rect x="325.5" y="194.8" width="84.9" height="171.2" rx="4" fill="#fb7185"/><text x="367.9" y="187.8" text-anchor="middle" class="v">2.5×</text><text x="275.0" y="390" text-anchor="middle" class="m">50,000</text><rect x="505.6" y="187.9" width="84.9" height="178.1" rx="4" fill="#a78bfa"/><text x="548.1" y="180.9" text-anchor="middle" class="v">2.6×</text><rect x="598.5" y="231.1" width="84.9" height="134.9" rx="4" fill="#f472b6"/><text x="641.0" y="224.1" text-anchor="middle" class="v">1.97×</text><rect x="691.5" y="95.4" width="84.9" height="270.6" rx="4" fill="#fb7185"/><text x="733.9" y="88.4" text-anchor="middle" class="v">3.95×</text><text x="641.0" y="390" text-anchor="middle" class="m">200,000</text><line x1="92" y1="297.5" x2="824" y2="297.5" stroke="#f59e0b" stroke-width="2" stroke-dasharray="7 5"/><text x="816" y="290.5" text-anchor="end" class="m" fill="#f59e0b">1× — rust baseline</text><g class="m"><rect x="92" y="408" width="13" height="13" rx="3" fill="#a78bfa"/><text x="111" y="419">cuda</text><rect x="158" y="408" width="13" height="13" rx="3" fill="#f472b6"/><text x="177" y="419">triton</text><rect x="242" y="408" width="13" height="13" rx="3" fill="#fb7185"/><text x="261" y="419">torch</text></g></svg>
